<svg xmlns="http://www.w3.org/2000/svg" xmlns:xlink="http://www.w3.org/1999/xlink" width="500" zoomAndPan="magnify" viewBox="0 0 375 374.999991" height="500" preserveAspectRatio="xMidYMid meet" version="1.0"><defs><clipPath id="ed1300f252"><path d="M 75.875 69 L 299.375 69 L 299.375 306 L 75.875 306 Z M 75.875 69 " clip-rule="nonzero"/></clipPath><clipPath id="0b33afdb5d"><path d="M 186 69 L 299.375 69 L 299.375 306 L 186 306 Z M 186 69 " clip-rule="nonzero"/></clipPath></defs><g clip-path="url(#ed1300f252)"><path fill="#e23237" d="M 75.875 108.367188 L 186.085938 69.226562 L 299.195312 107.761719 L 280.917969 253.214844 L 186.085938 305.5625 L 92.792969 253.894531 Z M 75.875 108.367188 " fill-opacity="1" fill-rule="nonzero"/></g><g clip-path="url(#0b33afdb5d)"><path fill="#b52e31" d="M 299.195312 107.761719 L 186.085938 69.226562 L 186.085938 305.5625 L 280.917969 253.214844 Z M 299.195312 107.761719 " fill-opacity="1" fill-rule="nonzero"/></g><path fill="#ffffff" d="M 186.253906 96.847656 L 117.578125 249.285156 L 143.207031 248.769531 L 157.042969 214.320312 L 218.46875 214.320312 L 233.507812 249.035156 L 257.945312 249.550781 Z M 186.425781 145.785156 L 209.664062 194.210938 L 166.164062 194.210938 L 186.492188 145.785156 Z M 186.425781 145.785156 " fill-opacity="1" fill-rule="nonzero"/></svg>