<svg xmlns="http://www.w3.org/2000/svg" xmlns:xlink="http://www.w3.org/1999/xlink" width="500" zoomAndPan="magnify" viewBox="0 0 375 374.999991" height="500" preserveAspectRatio="xMidYMid meet" version="1.0"><defs><clipPath id="003ed2a4c1"><path d="M 65.335938 109 L 193 109 L 193 291 L 65.335938 291 Z M 65.335938 109 " clip-rule="nonzero"/></clipPath><clipPath id="2bd9499415"><path d="M 65.335938 90 L 309.835938 90 L 309.835938 357.894531 L 65.335938 357.894531 Z M 65.335938 90 " clip-rule="nonzero"/></clipPath><clipPath id="19157fa811"><path d="M 65.335938 19 L 162 19 L 162 291 L 65.335938 291 Z M 65.335938 19 " clip-rule="nonzero"/></clipPath></defs><path fill="#ffa000" d="M 226.386719 141.730469 L 192.523438 173.242188 L 161.097656 109.847656 L 177.359375 73.386719 C 181.589844 65.984375 188.1875 66.070312 192.3125 73.386719 Z M 226.386719 141.730469 " fill-opacity="1" fill-rule="nonzero"/><g clip-path="url(#003ed2a4c1)"><path fill="#f57f17" d="M 161.097656 109.847656 L 192.523438 173.242188 L 65.960938 290.992188 Z M 161.097656 109.847656 " fill-opacity="1" fill-rule="nonzero"/></g><g clip-path="url(#2bd9499415)"><path fill="#ffca28" d="M 263.425781 93.566406 C 269.472656 87.75 275.730469 89.738281 277.328125 97.972656 L 310.273438 289.425781 L 201.074219 354.988281 C 197.269531 357.101562 187.121094 358.011719 187.121094 358.011719 C 187.121094 358.011719 177.878906 356.914062 174.359375 354.839844 L 65.960938 290.992188 Z M 263.425781 93.566406 " fill-opacity="1" fill-rule="nonzero"/></g><g clip-path="url(#19157fa811)"><path fill="#ffa000" d="M 161.097656 109.847656 L 65.972656 290.992188 L 108.339844 26.257812 C 109.90625 18.007812 114.597656 17.214844 118.785156 24.492188 Z M 161.097656 109.847656 " fill-opacity="1" fill-rule="nonzero"/></g></svg>