<svg xmlns="http://www.w3.org/2000/svg" xmlns:xlink="http://www.w3.org/1999/xlink" width="500" zoomAndPan="magnify" viewBox="0 0 375 374.999991" height="500" preserveAspectRatio="xMidYMid meet" version="1.0"><defs><clipPath id="b40fa34c16"><path d="M 8.164062 121 L 237 121 L 237 254 L 8.164062 254 Z M 8.164062 121 " clip-rule="nonzero"/></clipPath></defs><g clip-path="url(#b40fa34c16)"><path fill="#00acd7" d="M 35.5 161.585938 C 34.804688 161.585938 34.632812 161.238281 34.980469 160.71875 L 38.609375 156.042969 C 38.957031 155.523438 39.820312 155.179688 40.511719 155.179688 L 102.257812 155.179688 C 102.949219 155.179688 103.121094 155.699219 102.777344 156.21875 L 99.835938 160.71875 C 99.488281 161.238281 98.625 161.757812 98.105469 161.757812 L 35.496094 161.585938 Z M 9.382812 177.519531 C 8.691406 177.519531 8.519531 177.171875 8.863281 176.652344 L 12.496094 171.976562 C 12.84375 171.457031 13.707031 171.109375 14.398438 171.109375 L 93.265625 171.109375 C 93.957031 171.109375 94.304688 171.628906 94.128906 172.148438 L 92.746094 176.304688 C 92.574219 177 91.882812 177.34375 91.1875 177.34375 Z M 51.238281 193.449219 C 50.542969 193.449219 50.375 192.929688 50.71875 192.410156 L 53.140625 188.082031 C 53.488281 187.5625 54.179688 187.042969 54.871094 187.042969 L 89.460938 187.042969 C 90.152344 187.042969 90.5 187.5625 90.5 188.253906 L 90.152344 192.410156 C 90.152344 193.101562 89.457031 193.621094 88.941406 193.621094 L 51.238281 193.445312 Z M 230.769531 158.46875 L 201.710938 166.085938 C 199.117188 166.78125 198.945312 166.953125 196.695312 164.355469 C 194.101562 161.410156 192.199219 159.492188 188.566406 157.773438 C 177.671875 152.40625 167.121094 153.964844 157.261719 160.375 C 145.5 167.992188 139.449219 179.25 139.621094 193.277344 C 139.792969 207.132812 149.304688 218.5625 162.96875 220.46875 C 174.730469 222.027344 184.589844 217.871094 192.375 209.039062 C 193.929688 207.136719 195.316406 205.058594 197.042969 202.632812 L 163.65625 202.632812 C 160.023438 202.632812 159.160156 200.382812 160.371094 197.4375 C 162.617188 192.066406 166.769531 183.0625 169.191406 178.558594 C 169.710938 177.519531 170.921875 175.789062 173.515625 175.789062 L 236.472656 175.789062 C 236.125 180.464844 236.125 185.140625 235.433594 189.816406 C 233.53125 202.285156 228.863281 213.714844 221.253906 223.761719 C 208.800781 240.210938 192.542969 250.429688 171.960938 253.203125 C 155.011719 255.453125 139.273438 252.164062 125.433594 241.773438 C 112.625 232.070312 105.375 219.253906 103.472656 203.324219 C 101.226562 184.445312 106.757812 167.476562 118.175781 152.582031 C 130.457031 136.476562 146.714844 126.257812 166.605469 122.621094 C 182.859375 119.675781 198.425781 121.582031 212.4375 131.105469 C 221.605469 137.167969 228.175781 145.480469 232.503906 155.527344 C 233.539062 157.085938 232.847656 157.949219 230.773438 158.472656 Z M 230.769531 158.46875 " fill-opacity="1" fill-rule="nonzero"/></g><path fill="#00acd7" d="M 288.019531 254.238281 C 272.28125 253.890625 257.921875 249.375 245.816406 238.996094 C 235.613281 230.164062 229.210938 218.902344 227.140625 205.570312 C 224.023438 186 229.386719 168.679688 241.148438 153.269531 C 253.777344 136.644531 268.992188 127.984375 289.578125 124.347656 C 307.21875 121.230469 323.824219 122.960938 338.867188 133.179688 C 352.53125 142.53125 361.007812 155.175781 363.257812 171.800781 C 366.199219 195.179688 359.453125 214.230469 343.367188 230.511719 C 331.953125 242.113281 317.941406 249.386719 301.855469 252.679688 C 297.1875 253.542969 292.519531 253.71875 288.023438 254.238281 Z M 329.183594 184.273438 C 329.007812 182.019531 329.007812 180.289062 328.664062 178.558594 C 325.550781 161.410156 309.8125 151.710938 293.378906 155.523438 C 277.292969 159.160156 266.917969 169.378906 263.113281 185.660156 C 260 199.167969 266.570312 212.851562 279.023438 218.390625 C 288.535156 222.542969 298.050781 222.027344 307.21875 217.351562 C 320.882812 210.265625 328.316406 199.167969 329.183594 184.273438 Z M 329.183594 184.273438 " fill-opacity="1" fill-rule="nonzero"/></svg>