<svg xmlns="http://www.w3.org/2000/svg" xmlns:xlink="http://www.w3.org/1999/xlink" width="500" zoomAndPan="magnify" viewBox="0 0 375 374.999991" height="500" preserveAspectRatio="xMidYMid meet" version="1.0"><defs><clipPath id="037be6cccf"><path d="M 40.429688 115 L 308 115 L 308 334.429688 L 40.429688 334.429688 Z M 40.429688 115 " clip-rule="nonzero"/></clipPath><clipPath id="f02fcb4b9f"><path d="M 67 40.429688 L 334.429688 40.429688 L 334.429688 255 L 67 255 Z M 67 40.429688 " clip-rule="nonzero"/></clipPath></defs><path fill="#000000" d="M 212.519531 261.003906 C 212.335938 261.066406 212.140625 261.089844 211.957031 261.152344 L 211.96875 261.164062 Z M 212.519531 261.003906 " fill-opacity="1" fill-rule="nonzero"/><path fill="#8caff6" d="M 227.523438 248.09375 C 228.429688 248.535156 230.488281 249.28125 233.34375 250.089844 C 252.710938 235.792969 265.144531 213.070312 265.195312 187.441406 L 265.195312 187.429688 L 265.167969 187.429688 C 265.109375 144.53125 230.34375 109.777344 187.441406 109.714844 C 178.917969 109.730469 170.722656 111.160156 163.054688 113.699219 C 178.832031 131.679688 186.414062 157.367188 193.75 185.484375 L 193.765625 185.519531 C 193.777344 185.542969 196.117188 193.324219 200.109375 203.648438 C 204.101562 213.964844 209.773438 226.742188 215.949219 236.050781 C 220.015625 242.296875 224.488281 246.78125 227.523438 248.09375 Z M 227.523438 248.09375 " fill-opacity="1" fill-rule="nonzero"/><path fill="#000000" d="M 162.488281 113.84375 C 162.671875 113.785156 162.871094 113.757812 163.054688 113.699219 C 163.054688 113.699219 163.039062 113.6875 163.039062 113.6875 Z M 162.488281 113.84375 " fill-opacity="1" fill-rule="nonzero"/><g clip-path="url(#037be6cccf)"><path fill="#60ab31" d="M 41.3125 171.652344 C 40.1875 177.605469 40.457031 182.113281 40.457031 187.453125 C 40.457031 268.625 106.273438 334.441406 187.453125 334.441406 C 237.179688 334.441406 281.082031 309.734375 307.6875 271.957031 C 293.308594 275.542969 279.453125 277.261719 267.617188 277.296875 C 263.183594 277.296875 259.019531 277.050781 255.136719 276.585938 L 255.136719 276.5625 C 244.847656 275.273438 236.355469 273.71875 228.910156 271.097656 C 216.816406 277.222656 202.546875 280.8125 187.441406 280.8125 C 135.859375 280.8125 94.050781 239.003906 94.035156 187.441406 C 94.035156 187.417969 94.035156 187.394531 94.035156 187.371094 C 94.035156 159.453125 106.324219 134.414062 125.777344 117.347656 L 125.886719 117.261719 C 121.023438 116.011719 115.425781 115.289062 109.679688 115.277344 L 109.667969 115.277344 C 82.277344 115.523438 53.355469 130.6875 41.3125 171.652344 Z M 41.3125 171.652344 " fill-opacity="1" fill-rule="nonzero"/></g><path fill="#8dd646" d="M 172.914062 166.300781 C 167.941406 153.828125 160.773438 139.375 154.378906 132.820312 C 151.023438 129.390625 147.214844 126.425781 143.035156 124.023438 L 142.78125 123.890625 C 122.703125 138.125 109.753906 161.265625 109.730469 187.429688 C 109.753906 213.203125 122.335938 236.039062 141.664062 250.164062 L 141.886719 250.320312 C 146.664062 230.453125 158.617188 212.261719 176.550781 175.804688 C 175.488281 172.867188 174.273438 169.667969 172.914062 166.300781 Z M 172.914062 166.300781 " fill-opacity="1" fill-rule="nonzero"/><path fill="#8dd646" d="M 187.453125 265.144531 C 196.019531 265.121094 204.238281 263.6875 211.953125 261.140625 C 210.117188 259.472656 208.453125 257.722656 206.921875 255.835938 L 206.847656 255.75 C 196.386719 242.410156 190.566406 222.894531 181.34375 190.0625 C 179.882812 193.238281 178.265625 196.789062 176.601562 200.574219 C 170.695312 213.953125 164.15625 230.21875 161.777344 240.644531 C 160.910156 244.492188 160.40625 248.902344 160.40625 253.433594 C 160.40625 253.640625 160.40625 253.863281 160.40625 254.070312 C 160.40625 256.078125 160.515625 258.199219 160.675781 260.367188 C 169.03125 263.429688 178.035156 265.121094 187.453125 265.144531 Z M 187.453125 265.144531 " fill-opacity="1" fill-rule="nonzero"/><g clip-path="url(#f02fcb4b9f)"><path fill="#567dd2" d="M 187.441406 40.441406 C 187.417969 40.441406 187.394531 40.441406 187.371094 40.441406 C 138.34375 40.441406 94.929688 64.488281 68.273438 101.421875 L 67.980469 101.851562 C 81.871094 93.15625 96.046875 90.007812 108.417969 90.128906 C 125.496094 90.179688 138.933594 95.46875 145.375 99.097656 C 146.933594 99.988281 148.414062 100.957031 149.859375 101.949219 C 160.921875 96.964844 173.832031 94.0625 187.429688 94.0625 C 239.003906 94.0625 280.824219 135.871094 280.835938 187.429688 C 280.835938 187.453125 280.835938 187.492188 280.835938 187.515625 C 280.835938 213.484375 270.203125 236.980469 253.066406 253.875 L 253.054688 253.886719 C 257.269531 254.351562 261.738281 254.660156 266.332031 254.632812 C 282.601562 254.632812 300.214844 251.042969 313.398438 239.957031 C 322.007812 232.707031 329.210938 222.097656 333.207031 206.183594 C 334 200.035156 334.429688 193.789062 334.429688 187.429688 C 334.429688 106.261719 268.636719 40.441406 187.441406 40.441406 Z M 187.441406 40.441406 " fill-opacity="1" fill-rule="nonzero"/></g></svg>