<svg xmlns="http://www.w3.org/2000/svg" xmlns:xlink="http://www.w3.org/1999/xlink" width="500" zoomAndPan="magnify" viewBox="0 0 375 374.999991" height="500" preserveAspectRatio="xMidYMid meet" version="1.0"><defs><clipPath id="b4e38cf55a"><path d="M 45.101562 60 L 330 60 L 330 315 L 45.101562 315 Z M 45.101562 60 " clip-rule="nonzero"/></clipPath></defs><g clip-path="url(#b4e38cf55a)"><path fill="#00d8ff" d="M 279.316406 143.035156 C 276.371094 142.019531 273.3125 141.058594 270.152344 140.148438 C 270.675781 138.035156 271.152344 135.945312 271.578125 133.898438 C 278.503906 100.222656 273.976562 73.09375 258.488281 64.164062 C 243.632812 55.597656 219.347656 64.527344 194.816406 85.875 C 192.460938 87.929688 190.089844 90.101562 187.734375 92.378906 C 186.152344 90.871094 184.585938 89.417969 183.019531 88.023438 C 157.308594 65.199219 131.542969 55.578125 116.070312 64.535156 C 101.230469 73.125 96.839844 98.625 103.082031 130.539062 C 103.6875 133.621094 104.390625 136.769531 105.1875 139.972656 C 101.542969 141.007812 98.019531 142.109375 94.652344 143.285156 C 64.511719 153.792969 45.265625 170.261719 45.265625 187.347656 C 45.265625 204.984375 65.929688 222.6875 97.320312 233.417969 C 99.796875 234.261719 102.367188 235.0625 105.015625 235.820312 C 104.15625 239.277344 103.410156 242.671875 102.78125 245.984375 C 96.828125 277.34375 101.476562 302.242188 116.273438 310.773438 C 131.558594 319.589844 157.210938 310.527344 182.183594 288.699219 C 184.164062 286.972656 186.144531 285.140625 188.121094 283.226562 C 190.703125 285.695312 193.269531 288.042969 195.816406 290.242188 C 220.015625 311.0625 243.910156 319.46875 258.6875 310.917969 C 273.957031 302.074219 278.925781 275.320312 272.476562 242.78125 C 271.988281 240.289062 271.410156 237.753906 270.777344 235.175781 C 272.578125 234.640625 274.34375 234.085938 276.070312 233.519531 C 308.707031 222.699219 329.933594 205.226562 329.933594 187.347656 C 329.933594 170.199219 310.0625 153.621094 279.316406 143.035156 Z M 272.242188 221.976562 C 270.6875 222.488281 269.085938 222.988281 267.460938 223.464844 C 263.859375 212.066406 259 199.933594 253.039062 187.402344 C 258.722656 175.167969 263.390625 163.195312 266.894531 151.863281 C 269.808594 152.707031 272.632812 153.597656 275.355469 154.535156 C 301.699219 163.605469 317.769531 177.015625 317.769531 187.347656 C 317.769531 198.34375 300.421875 212.632812 272.242188 221.976562 Z M 260.546875 245.140625 C 263.402344 259.527344 263.804688 272.539062 261.914062 282.714844 C 260.222656 291.855469 256.808594 297.949219 252.59375 300.386719 C 243.621094 305.578125 224.441406 298.828125 203.757812 281.023438 C 201.378906 278.980469 198.988281 276.800781 196.59375 274.496094 C 204.613281 265.722656 212.628906 255.527344 220.457031 244.195312 C 234.214844 242.980469 247.214844 240.980469 259.011719 238.253906 C 259.589844 240.601562 260.101562 242.894531 260.546875 245.140625 Z M 142.320312 299.484375 C 133.554688 302.585938 126.574219 302.675781 122.355469 300.242188 C 113.375 295.058594 109.640625 275.0625 114.734375 248.253906 C 115.316406 245.183594 116.011719 242.023438 116.8125 238.800781 C 128.472656 241.378906 141.378906 243.238281 155.171875 244.347656 C 163.050781 255.4375 171.300781 265.621094 179.609375 274.542969 C 177.796875 276.296875 175.984375 277.964844 174.183594 279.535156 C 163.140625 289.199219 152.074219 296.046875 142.320312 299.484375 Z M 101.257812 221.910156 C 87.375 217.160156 75.914062 211 68.054688 204.261719 C 60.996094 198.222656 57.429688 192.214844 57.429688 187.347656 C 57.429688 176.980469 72.882812 163.753906 98.660156 154.769531 C 101.785156 153.675781 105.0625 152.648438 108.457031 151.683594 C 112.019531 163.273438 116.691406 175.390625 122.332031 187.636719 C 116.621094 200.066406 111.878906 212.378906 108.28125 224.109375 C 105.859375 223.410156 103.515625 222.675781 101.257812 221.910156 Z M 115.023438 128.203125 C 109.671875 100.863281 113.226562 80.238281 122.167969 75.058594 C 131.6875 69.546875 152.746094 77.40625 174.9375 97.117188 C 176.363281 98.378906 177.785156 99.695312 179.21875 101.058594 C 170.945312 109.941406 162.773438 120.050781 154.964844 131.070312 C 141.578125 132.3125 128.761719 134.304688 116.980469 136.976562 C 116.238281 133.996094 115.582031 131.066406 115.023438 128.203125 Z M 237.808594 158.527344 C 234.992188 153.660156 232.101562 148.910156 229.15625 144.289062 C 238.242188 145.4375 246.9375 146.964844 255.109375 148.828125 C 252.664062 156.691406 249.605469 164.914062 246.003906 173.34375 C 243.421875 168.4375 240.6875 163.496094 237.808594 158.527344 Z M 187.734375 109.75 C 193.351562 115.828125 198.964844 122.613281 204.492188 129.976562 C 198.921875 129.714844 193.28125 129.578125 187.601562 129.578125 C 181.972656 129.578125 176.382812 129.710938 170.84375 129.96875 C 176.371094 122.675781 182.039062 115.898438 187.734375 109.75 Z M 137.339844 158.613281 C 134.527344 163.492188 131.847656 168.40625 129.304688 173.335938 C 125.765625 164.933594 122.734375 156.675781 120.261719 148.699219 C 128.382812 146.882812 137.042969 145.394531 146.066406 144.269531 C 143.078125 148.933594 140.164062 153.71875 137.339844 158.609375 Z M 146.328125 231.28125 C 137.003906 230.25 128.210938 228.835938 120.09375 227.066406 C 122.605469 218.949219 125.703125 210.519531 129.320312 201.9375 C 131.867188 206.863281 134.558594 211.777344 137.390625 216.671875 C 140.273438 221.652344 143.261719 226.523438 146.328125 231.28125 Z M 188.066406 265.789062 C 182.308594 259.574219 176.558594 252.691406 170.941406 245.292969 C 176.390625 245.507812 181.953125 245.617188 187.601562 245.617188 C 193.40625 245.617188 199.144531 245.484375 204.78125 245.238281 C 199.242188 252.769531 193.640625 259.664062 188.066406 265.789062 Z M 246.113281 201.503906 C 249.917969 210.175781 253.128906 218.5625 255.675781 226.546875 C 247.425781 228.425781 238.507812 229.9375 229.121094 231.070312 C 232.078125 226.390625 234.992188 221.550781 237.863281 216.582031 C 240.765625 211.554688 243.511719 206.519531 246.113281 201.503906 Z M 227.320312 210.511719 C 222.871094 218.226562 218.300781 225.589844 213.664062 232.539062 C 205.226562 233.140625 196.496094 233.453125 187.601562 233.453125 C 178.738281 233.453125 170.121094 233.183594 161.824219 232.640625 C 157 225.601562 152.335938 218.214844 147.914062 210.578125 C 143.503906 202.960938 139.445312 195.273438 135.769531 187.636719 C 139.445312 179.984375 143.492188 172.289062 147.878906 164.6875 L 147.875 164.6875 C 152.273438 157.0625 156.898438 149.710938 161.679688 142.710938 C 170.144531 142.070312 178.828125 141.738281 187.601562 141.738281 C 196.417969 141.738281 205.101562 142.074219 213.566406 142.71875 C 218.28125 149.667969 222.871094 156.996094 227.289062 164.621094 C 231.746094 172.332031 235.851562 179.972656 239.550781 187.46875 C 235.859375 195.085938 231.769531 202.804688 227.320312 210.511719 Z M 252.40625 74.695312 C 261.949219 80.195312 265.652344 102.363281 259.65625 131.4375 C 259.277344 133.292969 258.84375 135.183594 258.378906 137.097656 C 246.570312 134.371094 233.746094 132.34375 220.328125 131.085938 C 212.5 119.945312 204.390625 109.820312 196.253906 101.050781 C 198.441406 98.945312 200.632812 96.941406 202.800781 95.046875 C 223.816406 76.757812 243.464844 69.535156 252.40625 74.695312 Z M 187.601562 161.917969 C 201.632812 161.917969 213.019531 173.296875 213.019531 187.34375 C 213.019531 201.375 201.632812 212.765625 187.601562 212.765625 C 173.566406 212.765625 162.179688 201.375 162.179688 187.34375 C 162.179688 173.296875 173.566406 161.917969 187.601562 161.917969 Z M 187.601562 161.917969 " fill-opacity="1" fill-rule="nonzero"/></g></svg>