<svg xmlns="http://www.w3.org/2000/svg" xmlns:xlink="http://www.w3.org/1999/xlink" width="500" zoomAndPan="magnify" viewBox="0 0 375 374.999991" height="500" preserveAspectRatio="xMidYMid meet" version="1.0"><path fill="#00c853" d="M 179.777344 44.160156 C 184.472656 41.523438 190.25 41.523438 194.9375 44.160156 C 218.128906 57.175781 287.917969 96.363281 311.117188 109.382812 C 315.8125 112.007812 318.699219 116.875 318.699219 122.144531 C 318.699219 148.179688 318.699219 226.542969 318.699219 252.582031 C 318.699219 257.847656 315.8125 262.714844 311.117188 265.351562 C 287.925781 278.367188 218.136719 317.554688 194.9375 330.570312 C 190.242188 333.207031 184.464844 333.207031 179.777344 330.570312 C 156.585938 317.554688 86.796875 278.367188 63.597656 265.351562 C 58.914062 262.714844 56.023438 257.855469 56.023438 252.585938 C 56.023438 226.550781 56.023438 148.1875 56.023438 122.152344 C 56.023438 116.882812 58.914062 112.015625 63.605469 109.382812 C 86.789062 96.363281 156.59375 57.175781 179.777344 44.160156 Z M 179.777344 44.160156 " fill-opacity="1" fill-rule="nonzero"/><path fill="#69f0ae" d="M 58.125 259.292969 C 56.285156 256.832031 56.023438 254.496094 56.023438 251.351562 C 56.023438 225.464844 56.023438 147.550781 56.023438 121.660156 C 56.023438 116.417969 58.90625 111.578125 63.585938 108.964844 C 86.695312 96.023438 156.25 57.066406 179.355469 44.117188 C 184.035156 41.496094 190.375 41.554688 195.054688 44.171875 C 218.164062 57.113281 287.484375 95.742188 310.589844 108.683594 C 312.457031 109.734375 313.882812 111 315.152344 112.664062 Z M 58.125 259.292969 " fill-opacity="1" fill-rule="nonzero"/><path fill="#ffffff" d="M 187.363281 90.578125 C 133.925781 90.578125 90.585938 133.925781 90.585938 187.367188 C 90.585938 240.808594 133.925781 284.15625 187.363281 284.15625 C 240.796875 284.15625 284.136719 240.808594 284.136719 187.367188 C 284.136719 133.925781 240.796875 90.578125 187.363281 90.578125 Z M 187.363281 235.761719 C 160.679688 235.761719 138.972656 214.050781 138.972656 187.367188 C 138.972656 160.679688 160.679688 138.972656 187.363281 138.972656 C 214.042969 138.972656 235.75 160.679688 235.75 187.367188 C 235.75 214.050781 214.042969 235.761719 187.363281 235.761719 Z M 187.363281 235.761719 " fill-opacity="1" fill-rule="nonzero"/><path fill="#00e676" d="M 315.140625 112.734375 C 318.707031 116.074219 318.636719 121.105469 318.636719 125.066406 C 318.636719 151.304688 318.417969 225.929688 318.699219 252.164062 C 318.726562 254.902344 317.824219 257.785156 316.46875 259.957031 L 184.546875 187.367188 Z M 315.140625 112.734375 " fill-opacity="1" fill-rule="nonzero"/><path fill="#ffffff" d="M 256.488281 159.710938 L 263.398438 159.710938 L 263.398438 215.019531 L 256.488281 215.019531 Z M 277.226562 159.710938 L 284.136719 159.710938 L 284.136719 215.019531 L 277.226562 215.019531 Z M 277.226562 159.710938 " fill-opacity="1" fill-rule="nonzero"/><path fill="#ffffff" d="M 242.660156 194.277344 L 297.960938 194.277344 L 297.960938 201.191406 L 242.660156 201.191406 Z M 242.660156 173.539062 L 297.960938 173.539062 L 297.960938 180.453125 L 242.660156 180.453125 Z M 242.660156 173.539062 " fill-opacity="1" fill-rule="nonzero"/></svg>