<svg xmlns="http://www.w3.org/2000/svg" xmlns:xlink="http://www.w3.org/1999/xlink" width="500" zoomAndPan="magnify" viewBox="0 0 375 374.999991" height="500" preserveAspectRatio="xMidYMid meet" version="1.0"><defs><clipPath id="26e3ab154c"><path d="M 80.367188 51.101562 L 222 51.101562 L 222 262 L 80.367188 262 Z M 80.367188 51.101562 " clip-rule="nonzero"/></clipPath><clipPath id="d113e53d15"><path d="M 206 121 L 294.867188 121 L 294.867188 324.101562 L 206 324.101562 Z M 206 121 " clip-rule="nonzero"/></clipPath><clipPath id="ba004a9c7d"><path d="M 245 51.101562 L 291 51.101562 L 291 97 L 245 97 Z M 245 51.101562 " clip-rule="nonzero"/></clipPath></defs><g clip-path="url(#26e3ab154c)"><path fill="#2ba977" d="M 176.855469 51.101562 L 221.570312 51.101562 L 221.570312 255.96875 C 198.667969 260.296875 181.808594 262 163.566406 262 C 108.957031 261.953125 80.527344 237.5625 80.527344 190.714844 C 80.527344 145.585938 110.683594 116.292969 157.410156 116.292969 C 164.664062 116.292969 170.183594 116.863281 176.855469 118.574219 Z M 178.425781 155.496094 C 173.1875 153.785156 168.875 153.214844 163.351562 153.214844 C 140.734375 153.214844 127.671875 167.003906 127.671875 191.167969 C 127.671875 214.699219 140.160156 227.695312 163.0625 227.695312 C 168.011719 227.695312 172.039062 227.410156 178.425781 226.554688 Z M 178.425781 155.496094 " fill-opacity="1" fill-rule="nonzero"/></g><g clip-path="url(#d113e53d15)"><path fill="#2ba977" d="M 294.695312 121.792969 L 294.695312 224.367188 C 294.695312 259.695312 292.042969 276.683594 284.277344 291.324219 C 277.027344 305.410156 267.46875 314.289062 247.730469 324.09375 L 206.246094 304.546875 C 225.984375 295.375 235.535156 287.273438 241.636719 274.90625 C 248.023438 262.261719 250.039062 247.621094 250.039062 209.097656 L 250.039062 121.792969 L 294.695312 121.796875 Z M 294.695312 121.792969 " fill-opacity="1" fill-rule="nonzero"/></g><g clip-path="url(#ba004a9c7d)"><path fill="#2ba977" d="M 245.53125 51.101562 L 290.246094 51.101562 L 290.246094 96.519531 L 245.53125 96.519531 Z M 245.53125 51.101562 " fill-opacity="1" fill-rule="nonzero"/></g></svg>