<svg xmlns="http://www.w3.org/2000/svg" xmlns:xlink="http://www.w3.org/1999/xlink" width="300" zoomAndPan="magnify" viewBox="0 0 224.87999 74.999997" height="100" preserveAspectRatio="xMidYMid meet" version="1.0"><defs><g/></defs><g fill="#fbfaf9" fill-opacity="1"><g transform="translate(17.601307, 45.464126)"><g><path d="M 8.5625 -22.546875 C 8.9375 -22.84375 8.972656 -23.441406 8.1875 -23.441406 L 0.636719 -23.441406 C -0.148438 -23.441406 -0.113281 -22.84375 0.261719 -22.546875 C 1.644531 -21.460938 1.792969 -16.5625 1.792969 -13.945312 C 1.792969 -11.328125 1.644531 -6.394531 0.261719 -5.347656 C -0.113281 -5.046875 -0.148438 -4.410156 0.636719 -4.410156 L 8.1875 -4.410156 C 8.972656 -4.410156 8.9375 -5.046875 8.5625 -5.347656 C 7.179688 -6.394531 7.027344 -11.328125 7.027344 -13.945312 C 7.027344 -16.5625 7.179688 -21.460938 8.5625 -22.546875 Z M 8.5625 -22.546875 "/></g></g></g><g fill="#fbfaf9" fill-opacity="1"><g transform="translate(26.759889, 45.464126)"><g><path d="M 5.160156 -16.226562 C 5.347656 -17.496094 7.140625 -17.648438 6.992188 -15.589844 C 6.691406 -12.300781 13.011719 -12.863281 11.703125 -15.742188 C 10.878906 -17.574219 8.074219 -18.28125 5.71875 -18.246094 L 5.644531 -18.246094 C 2.316406 -18.132812 -0.300781 -16.375 0.0390625 -13.609375 C 0.484375 -9.871094 7.476562 -9.609375 6.730469 -6.429688 C 6.46875 -5.195312 4.75 -5.011719 4.933594 -7.066406 C 5.195312 -10.355469 -1.121094 -9.796875 0.1875 -6.917969 C 1.007812 -5.121094 3.777344 -4.375 6.167969 -4.410156 L 6.242188 -4.449219 C 9.496094 -4.523438 12.226562 -6.765625 11.890625 -8.859375 C 11.328125 -12.300781 4.597656 -13.011719 5.160156 -16.226562 Z M 5.160156 -16.226562 "/></g></g></g><g fill="#fbfaf9" fill-opacity="1"><g transform="translate(39.058586, 45.464126)"><g><path d="M 15.890625 -18.246094 L 11.589844 -18.246094 C 11.066406 -18.246094 10.917969 -17.796875 11.214844 -17.460938 C 12.636719 -15.742188 10.46875 -7.214844 10.46875 -7.214844 C 10.28125 -7.550781 6.84375 -15.140625 8.9375 -17.460938 C 9.234375 -17.796875 8.972656 -18.246094 8.5625 -18.246094 L 0.523438 -18.246094 C -0.261719 -18.246094 -0.0742188 -17.609375 0.410156 -17.3125 C 1.496094 -16.675781 2.394531 -15.367188 3.777344 -10.878906 L 5.308594 -5.871094 C 5.609375 -4.859375 6.058594 -4.410156 7.214844 -4.410156 L 9.683594 -4.410156 C 10.507812 -4.410156 10.84375 -5.046875 11.066406 -5.796875 L 13.683594 -14.28125 C 14.09375 -15.664062 14.46875 -16.710938 15.777344 -17.460938 C 16.265625 -17.757812 16.339844 -18.246094 15.890625 -18.246094 Z M 15.890625 -18.246094 "/></g></g></g><g fill="#fbfaf9" fill-opacity="1"><g transform="translate(55.618863, 45.464126)"><g><path d="M 13.308594 -8.710938 C 12.261719 -7.328125 9.984375 -6.84375 8.597656 -7.214844 C 7.105469 -7.664062 6.28125 -8.710938 5.90625 -9.945312 C 6.691406 -9.609375 7.550781 -9.382812 8.523438 -9.382812 C 11.441406 -9.382812 13.832031 -11.367188 13.832031 -13.796875 C 13.832031 -16.265625 10.691406 -18.246094 7.777344 -18.246094 C 3.289062 -18.246094 0 -15.140625 0 -11.328125 C 0 -7.515625 3.328125 -4.410156 7.476562 -4.410156 C 10.355469 -4.410156 12.863281 -5.945312 14.09375 -8.152344 C 14.320312 -8.5625 13.683594 -9.199219 13.308594 -8.710938 Z M 7.589844 -17.199219 C 8.597656 -17.199219 9.308594 -15.664062 9.308594 -13.796875 C 9.308594 -11.964844 8.597656 -10.429688 7.589844 -10.429688 C 6.691406 -10.429688 5.757812 -11.664062 5.757812 -13.648438 C 5.757812 -16.039062 6.992188 -17.199219 7.589844 -17.199219 Z M 7.589844 -17.199219 "/></g></g></g><g fill="#fbfaf9" fill-opacity="1"><g transform="translate(70.160498, 45.464126)"><g><path d="M 9.199219 -16.601562 L 7.476562 -16.601562 C 7.589844 -17.835938 7.777344 -19.105469 8 -20.414062 C 8.074219 -20.898438 7.738281 -21.5 6.992188 -21.199219 C 5.234375 -20.5625 4.449219 -16.601562 0.859375 -16.601562 L 0.636719 -16.601562 C 0.148438 -16.601562 0 -16.1875 0 -15.703125 C 0 -15.21875 0.148438 -14.804688 0.636719 -14.804688 L 1.457031 -14.804688 C 1.980469 -13.570312 1.945312 -11.890625 1.945312 -10.917969 C 1.945312 -9.308594 1.980469 -6.503906 0.746094 -5.347656 C 0.375 -5.011719 0.375 -4.410156 0.859375 -4.410156 L 8.414062 -4.410156 C 9.234375 -4.410156 9.199219 -5.046875 8.824219 -5.347656 C 7.8125 -6.132812 7.140625 -9.984375 7.367188 -14.804688 L 9.199219 -14.804688 C 9.683594 -14.804688 9.832031 -15.21875 9.832031 -15.703125 C 9.832031 -16.1875 9.683594 -16.601562 9.199219 -16.601562 Z M 9.199219 -16.601562 "/></g></g></g><g fill="#fbfaf9" fill-opacity="1"><g transform="translate(80.291017, 45.464126)"><g><path d="M 18.28125 -5.195312 C 17.011719 -6.167969 16.75 -6.992188 16.75 -8.375 L 16.75 -10.84375 C 16.75 -14.957031 14.207031 -18.246094 10.132812 -18.246094 C 8.675781 -18.246094 7.550781 -17.421875 6.730469 -16.375 C 6.804688 -18.433594 6.992188 -20.527344 7.367188 -22.507812 C 7.441406 -22.992188 7.777344 -23.628906 6.992188 -23.441406 C 5.609375 -23.179688 3.964844 -20.714844 0.375 -20.714844 C 0 -20.714844 -0.148438 -20.265625 0.222656 -19.964844 C 1.53125 -18.992188 1.757812 -18.171875 1.757812 -16.789062 L 1.757812 -8.375 C 1.757812 -6.992188 1.53125 -6.167969 0.222656 -5.195312 C -0.148438 -4.898438 0 -4.410156 0.375 -4.410156 L 7.777344 -4.410156 C 8.597656 -4.410156 8.5625 -5.046875 8.1875 -5.347656 C 7.289062 -6.019531 6.691406 -9.871094 6.691406 -14.394531 C 7.402344 -15.851562 8.375 -16.675781 9.046875 -16.675781 C 11.628906 -16.675781 12.75 -7.515625 10.320312 -5.347656 C 9.984375 -5.011719 9.945312 -4.410156 10.730469 -4.410156 L 18.171875 -4.410156 C 18.542969 -4.410156 18.695312 -4.898438 18.28125 -5.195312 Z M 18.28125 -5.195312 "/></g></g></g><g fill="#fbfaf9" fill-opacity="1"><g transform="translate(99.31853, 45.464126)"><g/></g></g><g fill="#fbfaf9" fill-opacity="1"><g transform="translate(105.224849, 45.464126)"><g><path d="M 19.554688 -5.195312 C 17.984375 -6.167969 17.871094 -6.992188 17.460938 -8.375 C 17.386719 -8.523438 14.019531 -19.589844 13.984375 -19.742188 C 13.535156 -21.125 12.078125 -23.441406 9.757812 -23.441406 L 6.132812 -23.441406 C 5.71875 -23.441406 5.457031 -22.992188 5.757812 -22.695312 C 6.730469 -21.722656 6.617188 -20.527344 6.207031 -19.144531 L 2.878906 -8.335938 C 2.28125 -6.617188 1.382812 -5.832031 0.261719 -5.195312 C -0.222656 -4.898438 0.0390625 -4.410156 0.410156 -4.410156 L 6.058594 -4.410156 C 6.429688 -4.410156 6.582031 -4.898438 6.28125 -5.195312 C 4.039062 -7.367188 4.300781 -9.234375 4.597656 -10.28125 L 11.105469 -10.28125 C 11.441406 -8.039062 11.476562 -6.09375 10.804688 -5.195312 C 10.582031 -4.859375 10.804688 -4.410156 11.179688 -4.410156 L 19.480469 -4.410156 C 19.851562 -4.410156 20.039062 -4.898438 19.554688 -5.195312 Z M 4.933594 -11.328125 L 7.703125 -20.375 C 8.488281 -19.667969 10.132812 -15.292969 10.917969 -11.328125 Z M 4.933594 -11.328125 "/></g></g></g><g fill="#fbfaf9" fill-opacity="1"><g transform="translate(125.299067, 45.464126)"><g><path d="M 8.1875 -5.347656 C 6.804688 -6.394531 6.058594 -15.367188 7.367188 -22.507812 C 7.441406 -22.992188 7.777344 -23.628906 6.992188 -23.441406 C 5.609375 -23.179688 3.964844 -20.714844 0.375 -20.714844 C 0 -20.714844 -0.148438 -20.265625 0.222656 -19.964844 C 1.53125 -18.992188 1.757812 -18.171875 1.757812 -16.789062 L 1.757812 -8.375 C 1.757812 -6.992188 1.53125 -6.167969 0.222656 -5.195312 C -0.148438 -4.898438 0 -4.410156 0.375 -4.410156 L 7.777344 -4.410156 C 8.597656 -4.410156 8.5625 -5.046875 8.1875 -5.347656 Z M 8.1875 -5.347656 "/></g></g></g><g fill="#fbfaf9" fill-opacity="1"><g transform="translate(134.009062, 45.464126)"><g><path d="M 9.570312 -16.601562 L 7.027344 -16.601562 C 7.328125 -19.667969 8.113281 -22.394531 9.160156 -22.394531 C 9.722656 -22.394531 9.722656 -21.535156 9.273438 -20.527344 C 8.226562 -18.058594 13.984375 -17.386719 14.132812 -20.152344 C 14.171875 -21.722656 12.226562 -23.441406 8.785156 -23.441406 C 4.785156 -23.441406 1.757812 -20.714844 1.757812 -16.675781 L 1.757812 -16.601562 L 1.160156 -16.601562 C 0.636719 -16.601562 0.484375 -16.1875 0.484375 -15.703125 C 0.484375 -15.21875 0.636719 -14.804688 1.160156 -14.804688 L 1.757812 -14.804688 L 1.757812 -8.375 C 1.757812 -6.992188 1.53125 -6.167969 0.222656 -5.195312 C -0.148438 -4.898438 0 -4.410156 0.375 -4.410156 L 7.777344 -4.410156 C 8.597656 -4.410156 8.5625 -5.046875 8.1875 -5.347656 C 7.328125 -5.980469 6.917969 -10.246094 6.917969 -13.945312 L 6.917969 -14.804688 L 9.570312 -14.804688 C 10.058594 -14.804688 10.207031 -15.21875 10.207031 -15.703125 C 10.207031 -16.1875 10.058594 -16.601562 9.570312 -16.601562 Z M 9.570312 -16.601562 "/></g></g></g><g fill="#fbfaf9" fill-opacity="1"><g transform="translate(144.700317, 45.464126)"><g><path d="M 7.476562 -18.246094 C 3.328125 -18.246094 0 -15.140625 0 -11.328125 C 0 -7.515625 3.328125 -4.410156 7.476562 -4.410156 C 11.589844 -4.410156 14.917969 -7.515625 14.917969 -11.328125 C 14.917969 -15.140625 11.589844 -18.246094 7.476562 -18.246094 Z M 7.476562 -5.457031 C 6.28125 -5.457031 5.308594 -8.113281 5.308594 -11.328125 C 5.308594 -14.582031 6.28125 -17.199219 7.476562 -17.199219 C 8.636719 -17.199219 9.609375 -14.582031 9.609375 -11.328125 C 9.609375 -8.113281 8.636719 -5.457031 7.476562 -5.457031 Z M 7.476562 -5.457031 "/></g></g></g><g fill="#fbfaf9" fill-opacity="1"><g transform="translate(160.213889, 45.464126)"><g><path d="M 18.171875 -5.195312 C 16.863281 -6.167969 16.636719 -6.992188 16.636719 -8.375 L 16.636719 -10.84375 C 16.636719 -14.957031 14.058594 -18.246094 10.019531 -18.246094 C 8.824219 -18.246094 7.851562 -17.460938 7.105469 -16.488281 L 7.214844 -17.273438 C 7.289062 -17.757812 7.664062 -18.359375 6.878906 -18.207031 C 5.457031 -17.910156 3.964844 -15.480469 0.375 -15.480469 C 0 -15.480469 -0.148438 -15.03125 0.222656 -14.730469 C 1.53125 -13.722656 1.757812 -12.898438 1.757812 -11.515625 L 1.757812 -8.375 C 1.757812 -6.992188 1.53125 -6.167969 0.222656 -5.195312 C -0.148438 -4.898438 0 -4.410156 0.375 -4.410156 L 7.664062 -4.410156 C 8.449219 -4.410156 8.449219 -5.046875 8.039062 -5.347656 C 6.917969 -6.207031 6.394531 -9.234375 6.804688 -13.984375 C 7.441406 -15.402344 8.1875 -16.527344 8.9375 -16.527344 C 11.515625 -16.527344 12.601562 -7.515625 10.207031 -5.347656 C 9.832031 -5.011719 9.796875 -4.410156 10.582031 -4.410156 L 18.019531 -4.410156 C 18.394531 -4.410156 18.542969 -4.898438 18.171875 -5.195312 Z M 18.171875 -5.195312 "/></g></g></g><g fill="#fbfaf9" fill-opacity="1"><g transform="translate(179.09188, 45.464126)"><g><path d="M 5.160156 -16.226562 C 5.347656 -17.496094 7.140625 -17.648438 6.992188 -15.589844 C 6.691406 -12.300781 13.011719 -12.863281 11.703125 -15.742188 C 10.878906 -17.574219 8.074219 -18.28125 5.71875 -18.246094 L 5.644531 -18.246094 C 2.316406 -18.132812 -0.300781 -16.375 0.0390625 -13.609375 C 0.484375 -9.871094 7.476562 -9.609375 6.730469 -6.429688 C 6.46875 -5.195312 4.75 -5.011719 4.933594 -7.066406 C 5.195312 -10.355469 -1.121094 -9.796875 0.1875 -6.917969 C 1.007812 -5.121094 3.777344 -4.375 6.167969 -4.410156 L 6.242188 -4.449219 C 9.496094 -4.523438 12.226562 -6.765625 11.890625 -8.859375 C 11.328125 -12.300781 4.597656 -13.011719 5.160156 -16.226562 Z M 5.160156 -16.226562 "/></g></g></g><g fill="#fbfaf9" fill-opacity="1"><g transform="translate(191.390585, 45.464126)"><g><path d="M 7.476562 -18.246094 C 3.328125 -18.246094 0 -15.140625 0 -11.328125 C 0 -7.515625 3.328125 -4.410156 7.476562 -4.410156 C 11.589844 -4.410156 14.917969 -7.515625 14.917969 -11.328125 C 14.917969 -15.140625 11.589844 -18.246094 7.476562 -18.246094 Z M 7.476562 -5.457031 C 6.28125 -5.457031 5.308594 -8.113281 5.308594 -11.328125 C 5.308594 -14.582031 6.28125 -17.199219 7.476562 -17.199219 C 8.636719 -17.199219 9.609375 -14.582031 9.609375 -11.328125 C 9.609375 -8.113281 8.636719 -5.457031 7.476562 -5.457031 Z M 7.476562 -5.457031 "/></g></g></g><g fill="#fbfaf9" fill-opacity="1"><g transform="translate(114.012579, 61.626556)"><g/></g></g></svg>